<svg width="512" height="512" viewBox="0 0 512 512" xmlns="http://www.w3.org/2000/svg">
  <defs>
    <linearGradient id="bg" x1="0%" y1="0%" x2="100%" y2="100%">
      <stop offset="0%" style="stop-color:#3b82f6;stop-opacity:1" />
      <stop offset="50%" style="stop-color:#8b5cf6;stop-opacity:1" />
      <stop offset="100%" style="stop-color:#ec4899;stop-opacity:1" />
    </linearGradient>
    <linearGradient id="note" x1="0%" y1="0%" x2="100%" y2="100%">
      <stop offset="0%" style="stop-color:#ffffff;stop-opacity:1" />
      <stop offset="100%" style="stop-color:#f1f5f9;stop-opacity:1" />
    </linearGradient>
  </defs>
  
  <!-- 배경 -->
  <rect width="512" height="512" rx="128" ry="128" fill="url(#bg)"/>
  
  <!-- 음표 기호 -->
  <g transform="translate(256,256)">
    <!-- 첫 번째 음표 -->
    <g transform="translate(-60,-40)">
      <ellipse cx="0" cy="40" rx="20" ry="15" fill="url(#note)"/>
      <rect x="18" y="-40" width="8" height="80" fill="url(#note)"/>
      <path d="M 26 -40 Q 60 -30, 60 -10 Q 60 10, 45 15 L 26 10 Z" fill="url(#note)"/>
    </g>
    
    <!-- 두 번째 음표 -->
    <g transform="translate(20,-20)">
      <ellipse cx="0" cy="30" rx="18" ry="13" fill="url(#note)"/>
      <rect x="16" y="-30" width="7" height="60" fill="url(#note)"/>
      <path d="M 23 -30 Q 50 -20, 50 0 Q 50 15, 38 18 L 23 15 Z" fill="url(#note)"/>
    </g>
    
    <!-- 연결선 -->
    <path d="M 34 -25 Q 40 -35, 43 -30 L 43 15 Q 40 20, 34 15 Z" fill="url(#note)" opacity="0.8"/>
  </g>
  
  <!-- 장식용 음표들 -->
  <g opacity="0.3">
    <circle cx="100" cy="150" r="8" fill="white"/>
    <circle cx="400" cy="180" r="6" fill="white"/>
    <circle cx="120" cy="350" r="5" fill="white"/>
    <circle cx="380" cy="380" r="7" fill="white"/>
  </g>
</svg>